<?xml version="1.0" encoding="UTF-8" standalone="no"?>
<!-- Created with Inkscape (http://www.inkscape.org/) -->

<svg
   width="55.955963mm"
   height="19.083866mm"
   viewBox="0 0 55.955963 19.083866"
   version="1.1"
   id="svg1"
   xmlns="http://www.w3.org/2000/svg"
   xmlns:svg="http://www.w3.org/2000/svg">
  <defs
     id="defs1">
    <rect
       x="173.62022"
       y="274.29077"
       width="515.02472"
       height="261.15985"
       id="rect1" />
  </defs>
  <g
     id="layer1"
     transform="translate(-46.925026,-75.45715)">
    <path
       style="font-weight:800;font-size:74.6667px;font-family:'Iosevka YMHG';-inkscape-font-specification:'Iosevka YMHG, Ultra-Bold';white-space:pre;fill:#FFFAEB;fill-opacity:1;stroke-width:0.264583"
       d="m 49.730313,90.451616 c -0.31609,0 -0.632177,-0.05927 -0.948267,-0.1778 -0.302919,-0.118533 -0.566325,-0.289748 -0.79022,-0.513643 -0.223899,-0.237067 -0.408284,-0.500476 -0.553157,-0.790224 -0.131704,-0.302918 -0.237066,-0.605837 -0.31609,-0.908756 -0.07902,-0.31609 -0.131704,-0.632177 -0.158043,-0.948267 -0.02633,-0.329258 -0.03951,-0.65193 -0.03951,-0.96802 v -6.223 c 0,-0.368771 0.02633,-0.730956 0.07902,-1.086556 0.05268,-0.368769 0.151461,-0.717783 0.296333,-1.047044 0.144876,-0.342429 0.335847,-0.658519 0.572913,-0.948267 0.237067,-0.289748 0.513644,-0.526814 0.829734,-0.7112 0.316089,-0.184385 0.651933,-0.316087 1.007533,-0.39511 0.368768,-0.07902 0.737539,-0.118533 1.10631,-0.118533 0.342429,0 0.684858,0.03293 1.02729,0.09878 0.342429,0.05268 0.665102,0.158046 0.96802,0.316089 0.302919,0.158044 0.579499,0.362186 0.829734,0.612421 0.250237,0.237067 0.454379,0.513643 0.612423,0.829733 0.158043,0.302919 0.269991,0.625594 0.335843,0.968023 0.07902,0.329261 0.118534,0.665105 0.118534,1.007534 v 0.118533 h -2.449687 v -0.05927 c 0,-0.210727 -0.02635,-0.421452 -0.07902,-0.632177 -0.05268,-0.223898 -0.13829,-0.428037 -0.256824,-0.612423 -0.118533,-0.184385 -0.276576,-0.322672 -0.474133,-0.414866 -0.197556,-0.105363 -0.408281,-0.158044 -0.632177,-0.158044 -0.171214,0 -0.335846,0.03293 -0.49389,0.09878 -0.158043,0.05268 -0.296333,0.144875 -0.414866,0.276577 -0.105363,0.118533 -0.197554,0.256823 -0.276577,0.414867 -0.06585,0.144875 -0.118533,0.296336 -0.158044,0.454379 -0.03951,0.158044 -0.06585,0.322673 -0.07902,0.493887 -0.01318,0.171215 -0.01976,0.335846 -0.01976,0.49389 v 6.223 c 0,0.158043 0.0066,0.322672 0.01976,0.493887 0.01318,0.158044 0.03952,0.322675 0.07902,0.49389 0.03951,0.158043 0.09219,0.31609 0.158044,0.474133 0.07902,0.144873 0.171214,0.276577 0.276577,0.39511 0.118533,0.118534 0.250237,0.210728 0.395113,0.27658 0.158043,0.06585 0.322672,0.09878 0.493887,0.09878 0.171214,0 0.32926,-0.03293 0.474133,-0.09878 0.158044,-0.06585 0.289748,-0.158046 0.395113,-0.27658 0.118533,-0.118533 0.210725,-0.250237 0.276577,-0.39511 0.07902,-0.158043 0.13829,-0.31609 0.1778,-0.474133 0.03951,-0.171215 0.06585,-0.335846 0.07902,-0.49389 0.01318,-0.171215 0.01976,-0.335844 0.01976,-0.493887 v -1.837267 h -1.343377 v -2.074333 h 3.793067 v 8.060267 H 52.37757 v -2.429934 c -0.07902,0.329258 -0.184386,0.651931 -0.31609,0.968021 -0.131705,0.316089 -0.309505,0.599252 -0.5334,0.849489 -0.223896,0.250238 -0.493887,0.441209 -0.809977,0.572911 -0.31609,0.131704 -0.645348,0.197556 -0.98778,0.197556 z m 4.874011,-0.158043 v -2.074334 h 1.284113 v -6.124223 h -1.284113 v -2.074333 h 3.7338 v 2.153356 c 0.07902,-0.289748 0.184385,-0.572913 0.31609,-0.849489 0.131704,-0.276577 0.296333,-0.526815 0.493889,-0.750711 0.210725,-0.223895 0.454377,-0.39511 0.730954,-0.513643 0.289748,-0.131705 0.586081,-0.197557 0.889,-0.197557 0.237067,0 0.460963,0.0461 0.67169,0.13829 0.210725,0.09219 0.388525,0.230481 0.5334,0.414867 0.158044,0.171214 0.276577,0.368768 0.3556,0.592666 0.09219,0.210725 0.158044,0.428035 0.197554,0.651934 0.05268,0.223895 0.08561,0.454377 0.09878,0.691443 0.01318,0.223896 0.01976,0.447792 0.01976,0.67169 l -2.374305,0.07538 c 0,-0.118533 -0.03172,-0.312449 -0.04489,-0.430982 -0.01318,-0.118533 -0.08798,-0.263985 -0.140655,-0.36935 -0.03951,-0.118534 -0.113739,-0.177221 -0.205933,-0.243073 -0.09219,-0.07902 -0.197557,-0.118533 -0.316087,-0.118533 -0.197557,0 -0.368771,0.06585 -0.513646,0.197556 -0.144873,0.131702 -0.263406,0.283162 -0.3556,0.454377 -0.07902,0.171214 -0.144873,0.3556 -0.197554,0.553156 -0.03951,0.184386 -0.07244,0.375354 -0.09878,0.572911 -0.02633,0.184385 -0.0461,0.375353 -0.05927,0.57291 v 0.553156 3.3782 h 1.521176 v 2.074334 z m 8.362733,0.158043 c -0.39511,-1.1e-5 -0.783638,-0.06585 -1.16558,-0.197556 -0.368768,-0.131702 -0.684858,-0.342429 -0.948266,-0.632177 -0.250235,-0.302919 -0.428035,-0.645348 -0.5334,-1.02729 -0.105363,-0.381939 -0.158044,-0.770467 -0.158044,-1.165577 0,-0.342429 0.03951,-0.684858 0.118534,-1.02729 0.09219,-0.3556 0.237066,-0.671689 0.434623,-0.948266 0.210724,-0.289748 0.460962,-0.533398 0.75071,-0.730954 0.302919,-0.197557 0.619006,-0.349015 0.948267,-0.454377 0.342429,-0.118533 0.684858,-0.197556 1.027289,-0.237067 0.3556,-0.03951 0.704615,-0.05927 1.047044,-0.05927 h 0.968023 v -0.572913 c 0,-0.184386 -0.02635,-0.368768 -0.07902,-0.553154 -0.05268,-0.197556 -0.144875,-0.362185 -0.276577,-0.49389 -0.118533,-0.144872 -0.269994,-0.250237 -0.45438,-0.316089 -0.184385,-0.06585 -0.368768,-0.09878 -0.553153,-0.09878 -0.171215,0 -0.342432,0.01976 -0.513647,0.05927 -0.158043,0.03951 -0.302918,0.111948 -0.43462,0.217311 -0.131704,0.105365 -0.237067,0.237069 -0.31609,0.395112 -0.06585,0.144873 -0.09878,0.302919 -0.09878,0.474134 v 0.03951 h -2.449689 v -0.09878 c 0,-0.31609 0.03951,-0.625594 0.118533,-0.928513 0.09219,-0.302919 0.223896,-0.579496 0.39511,-0.829733 0.184386,-0.250235 0.401698,-0.467548 0.651933,-0.651933 0.263409,-0.197557 0.533403,-0.349015 0.80998,-0.454377 0.289748,-0.118534 0.586081,-0.197557 0.889,-0.237067 0.31609,-0.03951 0.632177,-0.05927 0.948267,-0.05927 0.329258,0 0.658516,0.02635 0.987776,0.07902 0.329261,0.05268 0.638763,0.144873 0.928511,0.276577 0.302918,0.131705 0.579498,0.309505 0.829733,0.5334 0.250238,0.210728 0.45438,0.460963 0.612423,0.750711 0.171215,0.289747 0.289748,0.599252 0.3556,0.928512 0.06585,0.31609 0.09878,0.638763 0.09878,0.968021 v 4.58329 c 0,0.05268 0.0066,0.105362 0.01976,0.158043 0.01318,0.05268 0.03952,0.09878 0.07902,0.13829 0.03951,0.03951 0.08561,0.06585 0.138288,0.07902 0.05268,0.01318 0.105365,0.01977 0.158046,0.01977 h 0.39511 v 2.074333 h -0.39511 c -0.302919,0 -0.605838,-0.03292 -0.908757,-0.09878 -0.302918,-0.05268 -0.586081,-0.158046 -0.849489,-0.31609 -0.263406,-0.158043 -0.487302,-0.362185 -0.671687,-0.612423 -0.184386,-0.263406 -0.309505,-0.539985 -0.375357,-0.829733 -0.09219,0.263409 -0.217313,0.513646 -0.375356,0.750713 -0.158044,0.237066 -0.349015,0.441206 -0.572911,0.61242 -0.223895,0.171215 -0.474133,0.296334 -0.75071,0.375357 -0.276577,0.07902 -0.276563,0.118541 -0.55314,0.118533 z m 1.0668,-2.074333 c 0.196927,-0.01577 0.39511,-0.03951 0.592667,-0.118534 0.197556,-0.07902 0.362185,-0.197556 0.493887,-0.3556 0.131704,-0.158043 0.217313,-0.335843 0.256823,-0.5334 0.05268,-0.210727 0.07902,-0.421452 0.07902,-0.632176 v -0.691447 h -0.968023 c -0.131704,0 -0.269994,0.0066 -0.414867,0.01976 -0.131704,0 -0.269994,0.01976 -0.414867,0.05927 -0.131704,0.02635 -0.263408,0.06585 -0.39511,0.118534 -0.118533,0.05268 -0.230481,0.125119 -0.335846,0.21731 -0.105362,0.09219 -0.184385,0.204142 -0.237067,0.335846 -0.05268,0.131702 -0.07902,0.263406 -0.07902,0.39511 0,0.184386 0.03292,0.3556 0.09878,0.513644 0.07902,0.158043 0.184385,0.289748 0.31609,0.395113 0.144872,0.105362 0.201726,0.198038 0.37294,0.237548 0.171215,0.03951 0.282141,0.06723 0.46594,0.05252 z m 4.61903,6.163733 V 80.020683 h 2.449689 v 1.758246 c 0.09219,-0.263409 0.210725,-0.513646 0.3556,-0.750713 0.158044,-0.250235 0.342429,-0.460962 0.553154,-0.632177 0.223898,-0.184385 0.474136,-0.316087 0.750713,-0.39511 0.276577,-0.09219 0.553156,-0.13829 0.829733,-0.13829 0.31609,0 0.619006,0.05268 0.908754,0.158044 0.302919,0.105365 0.566327,0.269994 0.790223,0.49389 0.223896,0.210727 0.408281,0.460962 0.553157,0.75071 0.144872,0.276577 0.25682,0.566327 0.335843,0.869246 0.09219,0.289748 0.151461,0.592664 0.1778,0.908754 0.02635,0.302919 0.03951,0.612423 0.03951,0.928513 v 2.370664 c 0,0.316089 -0.01318,0.632177 -0.03951,0.948266 -0.02633,0.302919 -0.08561,0.605838 -0.1778,0.908757 -0.07902,0.289748 -0.190971,0.579495 -0.335843,0.869243 -0.144876,0.276577 -0.329261,0.526815 -0.553157,0.750713 -0.223896,0.210725 -0.487304,0.368768 -0.790223,0.474134 -0.289748,0.105362 -0.592664,0.158043 -0.908754,0.158043 -0.276577,0 -0.553156,-0.0461 -0.829733,-0.13829 -0.276577,-0.07902 -0.526815,-0.204139 -0.750713,-0.375353 -0.210725,-0.184386 -0.39511,-0.395113 -0.553154,-0.63218 -0.144875,-0.250235 -0.263408,-0.507058 -0.3556,-0.770467 v 6.00569 z m 3.872089,-6.163733 c 0.237067,0 0.454377,-0.05927 0.651934,-0.1778 0.210724,-0.131705 0.368768,-0.296334 0.474133,-0.49389 0.118533,-0.210725 0.197556,-0.428035 0.237067,-0.651933 0.03951,-0.237067 0.05927,-0.474134 0.05927,-0.7112 v -2.370664 c 0,-0.237067 -0.01976,-0.467548 -0.05927,-0.691447 -0.03951,-0.237066 -0.118534,-0.454376 -0.237067,-0.651933 -0.105365,-0.210725 -0.263409,-0.375354 -0.474133,-0.493887 -0.197557,-0.131704 -0.414867,-0.197556 -0.651934,-0.197556 -0.237066,0 -0.460962,0.06585 -0.671689,0.197556 -0.197557,0.118533 -0.3556,0.283162 -0.474134,0.493887 -0.105362,0.197557 -0.1778,0.414867 -0.21731,0.651933 -0.03951,0.223899 -0.05927,0.45438 -0.05927,0.691447 v 2.370664 c 0,0.237066 0.01977,0.474133 0.05927,0.7112 0.03951,0.223898 0.111948,0.441208 0.21731,0.651933 0.118534,0.197556 0.276577,0.362185 0.474134,0.49389 0.210727,0.118533 0.434623,0.1778 0.671689,0.1778 z m 3.855445,1.91629 V 75.773239 h 2.449687 v 5.985934 c 0.09219,-0.263406 0.210728,-0.513644 0.3556,-0.750711 0.144875,-0.237066 0.322675,-0.441208 0.5334,-0.612423 0.210728,-0.184385 0.447794,-0.316087 0.7112,-0.39511 0.263409,-0.09219 0.533403,-0.13829 0.80998,-0.13829 0.302918,0 0.599252,0.05927 0.889,0.1778 0.302918,0.105363 0.559739,0.269992 0.770466,0.49389 0.223896,0.210725 0.401696,0.460962 0.5334,0.75071 0.144873,0.276577 0.256821,0.566325 0.335844,0.869244 0.07902,0.289748 0.131704,0.592666 0.158043,0.908756 0.02635,0.302919 0.03951,0.605838 0.03951,0.908757 v 6.321777 h -2.449689 v -6.321777 c 0,-0.158044 -0.0066,-0.309505 -0.01976,-0.45438 -0.01318,-0.158043 -0.03952,-0.309504 -0.07902,-0.454377 -0.03951,-0.144872 -0.09219,-0.283162 -0.158046,-0.414866 -0.06585,-0.144873 -0.151459,-0.269992 -0.256821,-0.375357 -0.105365,-0.118533 -0.230484,-0.204139 -0.375356,-0.25682 -0.144873,-0.05268 -0.296334,-0.07902 -0.454377,-0.07902 -0.158044,0 -0.309505,0.02635 -0.45438,0.07902 -0.144872,0.05268 -0.269991,0.138287 -0.375354,0.25682 -0.105365,0.105365 -0.190971,0.230484 -0.256823,0.375357 -0.06585,0.131704 -0.118533,0.269994 -0.158043,0.414866 -0.03951,0.144873 -0.06585,0.296334 -0.07902,0.454377 -0.01318,0.144875 -0.01977,0.296336 -0.01977,0.45438 v 6.321777 z m 7.561429,0 v -2.074334 h 2.370667 v -6.124223 h -2.09409 v -2.074333 h 4.54378 v 8.198556 h 2.094087 v 2.074334 z m 1.9558,-11.636023 v -3.2004 h 3.2004 v 3.2004 z m 10.403967,11.636023 h -1.758244 c -0.316089,0 -0.632176,-0.02635 -0.948266,-0.07902 -0.31609,-0.05268 -0.619009,-0.15146 -0.908757,-0.296333 -0.289747,-0.144873 -0.553156,-0.329258 -0.790223,-0.553156 -0.223895,-0.223896 -0.408281,-0.480719 -0.553154,-0.770467 -0.131704,-0.289748 -0.223898,-0.592664 -0.276579,-0.908754 -0.05268,-0.31609 -0.07902,-0.632177 -0.07902,-0.948266 V 82.09502 h -2.271889 v -2.074333 h 2.271889 v -3.457221 h 2.449688 v 3.457221 h 2.864556 v 2.074333 h -2.864556 v 4.642557 c 0,0.171214 0.01318,0.349014 0.03951,0.5334 0.02633,0.171214 0.08561,0.329258 0.1778,0.474133 0.09219,0.144872 0.217311,0.263406 0.375354,0.3556 0.171215,0.07902 0.342432,0.118533 0.513646,0.118533 h 1.758244 z m -0.335071,0 v -2.074334 h 2.370667 v -6.124223 h -2.09409 v -2.074333 h 4.543777 v 8.198556 h 2.09409 v 2.074334 z m 1.9558,-11.636023 v -3.2004 h 3.200404 v 3.2004 z"
       id="text1"
       aria-label="Graphiti" />
    <path
       style="fill:#1b9e77;fill-opacity:1;stroke-width:0.0293967"
       d="m 324.67213,291.24805 v -6.04103 h 6.02632 6.02633 v 6.04103 6.04103 h -6.02633 -6.02632 z"
       id="path1"
       transform="scale(0.26458333)" />
    <path
       style="fill:#d95f02;fill-opacity:1;stroke-width:0.178598"
       d="m 370.14465,291.20427 v -5.98304 h 5.98304 5.98304 v 5.98304 5.98304 h -5.98304 -5.98304 z"
       id="path2"
       transform="scale(0.26458333)" />
  </g>
</svg>
